<!DOCTYPE svg PUBLIC "-//W3C//DTD SVG 1.1//EN" "http://www.w3.org/Graphics/SVG/1.1/DTD/svg11.dtd">
<!-- Uploaded to: SVG Repo, www.svgrepo.com, Transformed by: SVG Repo Mixer Tools -->
<svg fill="#b6c3ce" version="1.1" id="Capa_1" xmlns="http://www.w3.org/2000/svg" xmlns:xlink="http://www.w3.org/1999/xlink" width="800px" height="800px" viewBox="0 0 32 32" xml:space="preserve">
<g id="SVGRepo_bgCarrier" stroke-width="0"/>
<g id="SVGRepo_tracerCarrier" stroke-linecap="round" stroke-linejoin="round"/>
<g id="SVGRepo_iconCarrier"> <g> <path d="M18.5,12c0-1.289,1.045-2.333,2.334-2.333c1.288,0,2.333,1.044,2.333,2.333s-1.045,2.333-2.333,2.333 C19.545,14.333,18.5,13.289,18.5,12z M11.167,14.333c1.287,0,2.333-1.044,2.333-2.333s-1.046-2.333-2.333-2.333 c-1.289,0-2.334,1.044-2.334,2.333S9.878,14.333,11.167,14.333z M32,16c0,8.822-7.18,16-16,16C7.178,32,0,24.822,0,16S7.178,0,16,0 C24.82,0,32,7.177,32,16z M29,16c0-7.168-5.832-13-13-13S3,8.832,3,16s5.832,13,13,13S29,23.168,29,16z M23.333,18.833H8.667 c-0.828,0-1.5,0.671-1.5,1.5s0.672,1.5,1.5,1.5h14.666c0.828,0,1.5-0.671,1.5-1.5S24.161,18.833,23.333,18.833z"/> </g> </g>
</svg>